:SAMPLES-PER-SECOND 30
:FULLY-SPECIFIED
:DEGREES
210
root  7.1247 39.0477 20.7904 178.384 -56.705 178.724
RightUpLeg  9.86494 -10.9287 -3.89386
RightLeg  10.4372 -8.49798 1.42046
RightFoot  -17.115 0.0681474 3.6488
RightToes  2.32829e-010 0 -3.6325e-017
Spine  7.44957 1.15833 6.39536
Spine1  6.57828 1.19601 1.73572
HEad  -5.67245 12.3879 13.0721
LeftShoulder1  -0.0879787 3.73917 -31.3232
LeftArm  0.355361 2.53742 -44.1113
LeftForeArm  31.5837 -47.2178 -9.80304
LeftHand  -0.135744 0.402459 3.14558
RightShoulder  -0.546894 -5.05756 28.3973
RightArm  12.2163 -0.142802 38.7167
RightForeArm  16.8904 1.14788 6.56735
RightHand  -0.1191 -0.35703 -2.72441
LeftUpLeg  -20.075 10.8322 -6.40884
LeftLeg  22.2557 2.5551 1.50055
LeftFoot  -9.17484 0.139291 -4.44152
LeftToes  -3.54706e-010 1.16038e-010 5.28031e-012
211
root  6.89974 38.985 20.0883 178.184 -56.7913 178.832
RightUpLeg  11.5356 -10.3136 -2.89576
RightLeg  9.1591 -9.52432 1.26147
RightFoot  -17.5213 0.0783725 3.64958
RightToes  2.32829e-010 0 -3.6325e-017
Spine  7.66152 1.16359 6.42992
Spine1  6.63204 1.26001 1.32924
HEad  -5.90573 11.4735 13.4403
LeftShoulder1  -0.0938149 3.75313 -31.5015
LeftArm  1.0023 3.24558 -44.2757
LeftForeArm  30.5314 -46.0442 -9.44544
LeftHand  -0.124575 0.311343 2.83591
RightShoulder  -0.588282 -5.16083 28.7298
RightArm  11.7458 -1.1615 38.1407
RightForeArm  17.0582 1.41995 6.26688
RightHand  -0.10615 -0.659185 -2.54304
LeftUpLeg  -20.0487 13.6311 -9.373
LeftLeg  17.6575 3.25778 1.39571
LeftFoot  -8.89143 0.159744 -4.98816
LeftToes  -3.54706e-010 1.16038e-010 5.28031e-012
212
root  6.60684 38.9065 19.3531 177.745 -56.742 179.004
RightUpLeg  13.5428 -9.74 -1.95032
RightLeg  7.82201 -10.359 1.17162
RightFoot  -17.73 0.0756716 3.50825
RightToes  2.32829e-010 0 -3.6325e-017
Spine  7.7089 1.24051 6.41716
Spine1  7.14581 1.45525 0.768628
HEad  -6.10678 10.011 14.1417
LeftShoulder1  -0.100329 3.7691 -31.7253
LeftArm  2.36101 3.23531 -44.6305
LeftForeArm  28.7109 -42.6848 -8.4067
LeftHand  -0.113179 0.460713 2.64489
RightShoulder  -0.633263 -5.26827 29.1586
RightArm  12.0812 -2.15415 37.7943
RightForeArm  15.4163 2.27321 6.35836
RightHand  -0.139603 0.119297 -2.96804
LeftUpLeg  -19.327 13.2151 -10.7695
LeftLeg  13.2353 6.86045 0.811476
LeftFoot  -8.57716 0.158003 -4.42007
LeftToes  -3.54706e-010 1.16038e-010 5.28031e-012
213
root  6.26029 38.7556 18.5838 177.384 -56.5278 179.517
RightUpLeg  14.9266 -9.35049 -0.985772
RightLeg  7.28202 -10.7786 1.33235
RightFoot  -18.3903 0.077785 3.28851
RightToes  2.32829e-010 0 -3.6325e-017
Spine  7.47061 1.39936 6.27507
Spine1  7.27626 1.65708 0.484133
HEad  -6.20765 9.68966 14.1844
LeftShoulder1  -0.0667937 3.67932 -31.9332
LeftArm  3.6678 3.47812 -45.1962
LeftForeArm  26.6574 -37.7938 -7.04668
LeftHand  -0.10104 0.989467 2.49232
RightShoulder  -0.614463 -5.2229 28.9973
RightArm  12.5023 -3.4013 38.2252
RightForeArm  14.4485 3.50986 6.50748
RightHand  -0.168688 0.211941 -3.54069
LeftUpLeg  -18.6182 7.50971 -9.65857
LeftLeg  9.50936 15.5015 -0.555547
LeftFoot  -8.36036 0.147653 -3.74459
LeftToes  -3.54706e-010 1.16038e-010 5.28031e-012
214
root  5.82375 38.5783 17.7534 176.899 -55.8589 -179.858
RightUpLeg  16.294 -9.23051 -0.296748
RightLeg  7.26795 -10.4216 1.69629
RightFoot  -19.0762 0.081767 3.11548
RightToes  2.32829e-010 0 -3.6325e-017
Spine  7.06268 1.51791 6.0847
Spine1  7.65925 1.87812 -0.00534583
HEad  -5.89877 10.1807 14.1215
LeftShoulder1  -0.149303 3.89364 -32.1409
LeftArm  6.27122 3.37722 -45.422
LeftForeArm  22.9643 -31.6038 -5.57994
LeftHand  -0.0453269 2.86679 1.49644
RightShoulder  -0.623483 -5.24485 29.0646
RightArm  12.7705 -4.09307 39.0639
RightForeArm  15.0584 4.80263 6.57027
RightHand  -0.136264 0.218853 -2.86137
LeftUpLeg  -18.066 3.27235 -8.6015
LeftLeg  6.73267 22.3731 -1.69645
LeftFoot  -8.31964 0.14279 -3.51914
LeftToes  -3.54706e-010 1.16038e-010 5.28031e-012
215
root  5.27532 38.3431 16.8587 176.431 -55.014 -179.205
RightUpLeg  17.4688 -9.46892 0.0208389
RightLeg  8.19238 -9.13251 2.06653
RightFoot  -20.0764 0.138064 3.5845
RightToes  2.32829e-010 0 -3.6325e-017
Spine  6.47801 1.64034 5.83092
Spine1  7.95309 2.11995 -0.564378
HEad  -5.8031 11.4354 13.3471
LeftShoulder1  -0.229878 4.09976 -32.4656
LeftArm  9.50252 3.34225 -45.2785
LeftForeArm  18.9815 -24.1079 -4.60916
LeftHand  -0.0435182 3.49152 1.59515
RightShoulder  -0.678018 -5.37755 29.4842
RightArm  13.2805 -4.4122 39.9975
RightForeArm  15.773 5.72501 6.75029
RightHand  -0.127612 0.348904 -2.64412
LeftUpLeg  -17.7502 1.97545 -8.34953
LeftLeg  5.93629 25.4463 -1.75171
LeftFoot  -8.67618 0.138134 -3.48272
LeftToes  -3.54706e-010 1.16038e-010 5.28031e-012
216
root  4.63196 38.1063 15.8951 176.281 -54.3954 -178.978
RightUpLeg  18.7265 -10.7845 -0.432137
RightLeg  9.72931 -6.55425 2.34679
RightFoot  -20.9641 0.224323 4.35393
RightToes  2.32829e-010 0 -3.6325e-017
Spine  5.70151 1.75867 4.97908
Spine1  8.29329 2.28527 -0.859963
HEad  -6.16691 12.301 12.4546
LeftShoulder1  -0.172742 3.94912 -32.6545
LeftArm  5.75476 4.04935 -44.6063
LeftForeArm  22.0323 -16.0725 -6.46267
LeftHand  -0.0387256 3.19943 1.43228
RightShoulder  -0.714852 -5.47866 29.5158
RightArm  12.6435 -5.35937 41.5489
RightForeArm  16.268 6.87861 6.50527
RightHand  -0.112448 0.814576 -2.17625
LeftUpLeg  -17.5587 2.40917 -8.80824
LeftLeg  7.17128 24.6971 -1.05708
LeftFoot  -8.25818 0.0558291 -1.25424
LeftToes  -3.54706e-010 1.16038e-010 5.28031e-012
217
root  3.92845 37.9693 14.8932 177.266 -54.0175 179.98
RightUpLeg  19.9989 -14.9365 -3.02911
RightLeg  11.9918 -0.711915 2.6493
RightFoot  -21.1881 0.375439 5.9977
RightToes  2.32829e-010 0 -3.6325e-017
Spine  4.94559 1.87273 2.95661
Spine1  8.60682 2.46618 -1.22904
HEad  -6.13646 13.2127 12.1269
LeftShoulder1  -0.190443 3.99036 -33.0232
LeftArm  -4.02603 4.77739 -43.3136
LeftForeArm  31.8438 -7.38659 -8.72667
LeftHand  -0.0364836 5.55675 1.13389
RightShoulder  -0.776275 -5.62316 29.9732
RightArm  12.0558 -6.20217 42.868
RightForeArm  15.336 7.61228 6.33658
RightHand  -0.157652 1.19206 -2.92022
LeftUpLeg  -18.3867 3.33343 -10.2031
LeftLeg  10.4041 22.775 0.658547
LeftFoot  -5.50829 -0.362644 7.8529
LeftToes  -3.54706e-010 1.16038e-010 5.28031e-012
218
root  3.18106 37.8382 13.9403 178.748 -54.6952 178.058
RightUpLeg  20.3758 -21.3328 -7.36669
RightLeg  17.8394 7.82559 3.10324
RightFoot  -20.9674 0.663461 9.49393
RightToes  2.32829e-010 0 -3.6325e-017
Spine  4.7535 1.61807 0.0779453
Spine1  8.46973 2.01027 -1.03487
HEad  -6.29499 13.3657 11.3341
LeftShoulder1  -0.186476 3.97395 -33.5242
LeftArm  -6.19065 6.40397 -42.0915
LeftForeArm  35.1281 -2.38358 -7.61655
LeftHand  -0.0889734 7.39119 -2.64632
RightShoulder  -0.830336 -5.74281 30.4573
RightArm  11.4773 -6.69262 44.2651
RightForeArm  15.2163 8.35699 6.14444
RightHand  -0.11283 1.63526 -2.01261
LeftUpLeg  -19.6058 6.14436 -12.8216
LeftLeg  15.7816 19.0648 4.07171
LeftFoot  -4.46467 -0.696661 12.0717
LeftToes  -3.54706e-010 1.16038e-010 5.28031e-012
219
root  2.44328 37.7264 13.0973 179.824 -56.1147 176.165
RightUpLeg  18.722 -22.4785 -10.2054
RightLeg  27.0742 11.0308 5.76621
RightFoot  -18.508 0.816552 15.5566
RightToes  2.32829e-010 0 -3.6325e-017
Spine  5.39466 1.3998 -2.19112
Spine1  8.32604 1.48443 -0.88019
HEad  -6.96459 13.9312 9.82417
LeftShoulder1  -0.16557 3.91753 -33.7779
LeftArm  -7.08229 8.02115 -41.468
LeftForeArm  38.502 0.637692 -6.80982
LeftHand  -0.159947 7.82042 -5.34299
RightShoulder  -0.830821 -5.76044 30.1931
RightArm  10.4894 -7.01822 46.2243
RightForeArm  15.1725 8.48421 5.88429
RightHand  -0.128029 1.48741 -2.28876
LeftUpLeg  -19.5785 8.4337 -14.9523
LeftLeg  19.9507 14.9982 6.18648
LeftFoot  -5.89027 -0.528769 11.8764
LeftToes  -3.54706e-010 1.16038e-010 5.28031e-012
220
root  1.71663 37.7041 12.4006 -179.686 -56.5687 175.185
RightUpLeg  13.6656 -19.4868 -10.8961
RightLeg  38.8466 11.2425 9.30682
RightFoot  -11.1563 -0.102936 21.6833
RightToes  2.32829e-010 0 -3.6325e-017
Spine  6.1661 1.766 -2.03327
Spine1  8.41086 2.02855 -2.51138
HEad  -7.42806 13.207 7.17247
LeftShoulder1  -0.0360354 3.59557 -33.2816
LeftArm  -6.93469 10.5012 -41.5739
LeftForeArm  41.0785 0.259209 -6.92413
LeftHand  -0.144779 7.4067 -5.54968
RightShoulder  -0.774345 -5.65198 29.3856
RightArm  10.3752 -7.44438 47.9784
RightForeArm  15.3614 9.31902 5.80782
RightHand  -0.0753854 1.17882 -1.45334
LeftUpLeg  -18.5562 8.02919 -15.1692
LeftLeg  22.0544 15.3359 6.88729
LeftFoot  -7.44288 -0.41541 13.4298
LeftToes  -3.54706e-010 1.16038e-010 5.28031e-012
